<?xml version="1.0" encoding="UTF-8" standalone="no"?>
<svg
   viewBox="-10 -10 282 282"
   version="1.1"
   id="svg451"
   sodipodi:docname="Flutter.svg"
   inkscape:version="1.2 (dc2aeda, 2022-05-15)"
   xmlns:inkscape="http://www.inkscape.org/namespaces/inkscape"
   xmlns:sodipodi="http://sodipodi.sourceforge.net/DTD/sodipodi-0.dtd"
   xmlns="http://www.w3.org/2000/svg"
   xmlns:svg="http://www.w3.org/2000/svg">
  <defs
     id="defs455" />
  <sodipodi:namedview
     id="namedview453"
     pagecolor="#ffffff"
     bordercolor="#000000"
     borderopacity="0.25"
     inkscape:showpageshadow="2"
     inkscape:pageopacity="0.0"
     inkscape:pagecheckerboard="0"
     inkscape:deskcolor="#d1d1d1"
     showgrid="false"
     inkscape:zoom="1.23"
     inkscape:cx="492.68293"
     inkscape:cy="148.37398"
     inkscape:window-width="1440"
     inkscape:window-height="847"
     inkscape:window-x="0"
     inkscape:window-y="25"
     inkscape:window-maximized="1"
     inkscape:current-layer="svg451" />
  <path
     d="M136.28 4.09L217.95 4 80.93 140.95l-35.71 35.51-40.63-40.68L136.28 4.09zm-.76 122.28c1.06-1.4 3.01-.71 4.49-.89l77.87.02-70.97 70.9-40.84-40.59 29.45-29.44z"
     fill="#44d1fd"
     id="path443" />
  <path
     fill="#1fbcfd"
     d="M65.36 196.47l40.71-40.66 40.84 40.59.17.18-41 40.62-40.72-40.73z"
     id="path447" />
  <path
     fill="#08589c"
     d="M106.08 237.2l41-40.62 70.83 70.9c-26.68.06-53.35-.02-80.02.04-1.52.34-2.46-1.05-3.43-1.91l-28.38-28.41z"
     id="path449" />
</svg>
