<svg xmlns="http://www.w3.org/2000/svg" xmlns:xlink="http://www.w3.org/1999/xlink" version="1.1" viewBox="25 25 975 975" xml:space="preserve">
<desc>Created with Fabric.js 3.5.0</desc>
<defs>
</defs>
<g transform="matrix(0.7205 0 0 0.7205 264.7078 480.1066)" id="866373">
<g style="" vector-effect="non-scaling-stroke">
		<g transform="matrix(1 0 0 1 -0.5 -4)">
<path style="stroke: none; stroke-width: 1; stroke-dasharray: none; stroke-linecap: butt; stroke-dashoffset: 0; stroke-linejoin: miter; stroke-miterlimit: 4; is-custom-font: none; font-file-url: none; fill: rgb(12,115,184); fill-rule: nonzero; opacity: 1;" transform=" translate(-225.5, -256)" d="M 41 460 L 0 0 L 451 0 L 410 460 L 225 512" stroke-linecap="round"/>
</g>
		<g transform="matrix(1 0 0 1 92 -5.5)">
<path style="stroke: none; stroke-width: 1; stroke-dasharray: none; stroke-linecap: butt; stroke-dashoffset: 0; stroke-linejoin: miter; stroke-miterlimit: 4; is-custom-font: none; font-file-url: none; fill: rgb(48,169,220); fill-rule: nonzero; opacity: 1;" transform=" translate(-318, -254.5)" d="M 226 472 L 375 431 L 410 37 L 226 37" stroke-linecap="round"/>
</g>
		<g transform="matrix(1 0 0 1 -71 -6)">
<path style="stroke: none; stroke-width: 1; stroke-dasharray: none; stroke-linecap: butt; stroke-dashoffset: 0; stroke-linejoin: miter; stroke-miterlimit: 4; is-custom-font: none; font-file-url: none; fill: rgb(236,237,238); fill-rule: nonzero; opacity: 1;" transform=" translate(-155, -254)" d="M 226 208 L 94 208 L 99 265 L 226 265 z M 226 94 L 84 94 L 89 150 L 226 150 z M 226 355 L 102 322 L 109 382 L 226 414 z" stroke-linecap="round"/>
</g>
		<g transform="matrix(1 0 0 1 70.5 -6)">
<path style="stroke: none; stroke-width: 1; stroke-dasharray: none; stroke-linecap: butt; stroke-dashoffset: 0; stroke-linejoin: miter; stroke-miterlimit: 4; is-custom-font: none; font-file-url: none; fill: rgb(255,255,255); fill-rule: nonzero; opacity: 1;" transform=" translate(-296.5, -254)" d="M 226 265 L 295 265 L 288 338 L 226 355 L 226 414 L 341 382 L 367 94 L 226 94 L 226 150 L 306 150 L 300 208 L 226 208 z" stroke-linecap="round"/>
</g>
</g>
</g>
<g transform="matrix(0.7205 0 0 0.7205 735.2905 473.5818)" id="258025">
<g style="" vector-effect="non-scaling-stroke">
		<g transform="matrix(1 0 0 1 -0.5 -4)">
<path style="stroke: none; stroke-width: 1; stroke-dasharray: none; stroke-linecap: butt; stroke-dashoffset: 0; stroke-linejoin: miter; stroke-miterlimit: 4; is-custom-font: none; font-file-url: none; fill: rgb(229,162,40); fill-rule: nonzero; opacity: 1;" transform=" translate(-225.5, -256)" d="M 0 0 L 451 0 L 410 460 L 225 512 L 41 460" stroke-linecap="round"/>
</g>
		<g transform="matrix(1 0 0 1 92 -5.5)">
<path style="stroke: none; stroke-width: 1; stroke-dasharray: none; stroke-linecap: butt; stroke-dashoffset: 0; stroke-linejoin: miter; stroke-miterlimit: 4; is-custom-font: none; font-file-url: none; fill: rgb(241,191,38); fill-rule: nonzero; opacity: 1;" transform=" translate(-318, -254.5)" d="M 226 472 L 375 431 L 410 37 L 226 37" stroke-linecap="round"/>
</g>
		<g transform="matrix(1 0 0 1 -62 -6)">
<path style="stroke: none; stroke-width: 1; stroke-dasharray: none; stroke-linecap: butt; stroke-dashoffset: 0; stroke-linejoin: miter; stroke-miterlimit: 4; is-custom-font: none; font-file-url: none; fill: rgb(236,237,238); fill-rule: nonzero; opacity: 1;" transform=" translate(-164, -254)" d="M 226 94 L 113 94 L 102 265 L 226 265 L 226 208 L 160 208 L 165 150 L 226 150 z M 226 355 L 162 338 L 158 293 L 102 293 L 109 382 L 226 414 z" stroke-linecap="round"/>
</g>
		<g transform="matrix(1 0 0 1 65.5 -6)">
<path style="stroke: none; stroke-width: 1; stroke-dasharray: none; stroke-linecap: butt; stroke-dashoffset: 0; stroke-linejoin: miter; stroke-miterlimit: 4; is-custom-font: none; font-file-url: none; fill: rgb(255,255,255); fill-rule: nonzero; opacity: 1;" transform=" translate(-291.5, -254)" d="M 226 265 L 295 265 L 288 338 L 226 355 L 226 414 L 341 382 L 357 208 L 226 208 z M 226 94 L 339 94 L 357 180 L 301 180 L 293 150 L 226 150 z" stroke-linecap="round"/>
</g>
</g>
</g>
<g transform="matrix(0.7205 0 0 0.7205 479.5203 573.1565)" id="881664">
<g style="" vector-effect="non-scaling-stroke">
		<g transform="matrix(1 0 0 1 -0.5 -4)">
<path style="stroke: none; stroke-width: 1; stroke-dasharray: none; stroke-linecap: butt; stroke-dashoffset: 0; stroke-linejoin: miter; stroke-miterlimit: 4; is-custom-font: none; font-file-url: none; fill: rgb(227,79,38); fill-rule: nonzero; opacity: 1;" transform=" translate(-225.5, -256)" d="M 41 460 L 0 0 L 451 0 L 410 460 L 225 512" stroke-linecap="round"/>
</g>
		<g transform="matrix(1 0 0 1 92 -5.5)">
<path style="stroke: none; stroke-width: 1; stroke-dasharray: none; stroke-linecap: butt; stroke-dashoffset: 0; stroke-linejoin: miter; stroke-miterlimit: 4; is-custom-font: none; font-file-url: none; fill: rgb(239,101,42); fill-rule: nonzero; opacity: 1;" transform=" translate(-318, -254.5)" d="M 226 472 L 375 431 L 410 37 L 226 37" stroke-linecap="round"/>
</g>
		<g transform="matrix(1 0 0 1 -71 -6)">
<path style="stroke: none; stroke-width: 1; stroke-dasharray: none; stroke-linecap: butt; stroke-dashoffset: 0; stroke-linejoin: miter; stroke-miterlimit: 4; is-custom-font: none; font-file-url: none; fill: rgb(236,237,238); fill-rule: nonzero; opacity: 1;" transform=" translate(-155, -254)" d="M 226 208 L 151 208 L 146 150 L 226 150 L 226 94 L 84 94 L 99 265 L 226 265 z M 226 355 L 162 338 L 158 293 L 102 293 L 109 382 L 226 414 z" stroke-linecap="round"/>
</g>
		<g transform="matrix(1 0 0 1 70.5 -6)">
<path style="stroke: none; stroke-width: 1; stroke-dasharray: none; stroke-linecap: butt; stroke-dashoffset: 0; stroke-linejoin: miter; stroke-miterlimit: 4; is-custom-font: none; font-file-url: none; fill: rgb(255,255,255); fill-rule: nonzero; opacity: 1;" transform=" translate(-296.5, -254)" d="M 226 265 L 295 265 L 288 338 L 226 355 L 226 414 L 341 382 L 357 208 L 226 208 z M 226 94 L 226 150 L 362 150 L 367 94 z" stroke-linecap="round"/>
</g>
</g>
</g>
</svg>
